<mxfile host="app.diagrams.net" modified="2023-12-08T19:43:49.300Z" agent="Mozilla/5.0 (Windows NT 10.0; Win64; x64) AppleWebKit/537.36 (KHTML, like Gecko) Chrome/120.0.0.0 Safari/537.36 Edg/120.0.0.0" etag="iWeAq9Es0iYecVD41swI" version="22.1.7" type="device" pages="2">
  <diagram id="RgjUlyyOS3lhKfSxZqX-" name="Portal do CIC">
    <mxGraphModel dx="1938" dy="624" grid="1" gridSize="10" guides="1" tooltips="1" connect="1" arrows="1" fold="1" page="1" pageScale="1" pageWidth="1169" pageHeight="827" math="0" shadow="0">
      <root>
        <mxCell id="0" />
        <mxCell id="1" parent="0" />
        <mxCell id="PexIiTiH-9xfvqRzH_-h-6" value="" style="edgeStyle=orthogonalEdgeStyle;rounded=0;orthogonalLoop=1;jettySize=auto;html=1;endArrow=none;endFill=0;" edge="1" parent="1" source="PexIiTiH-9xfvqRzH_-h-1" target="PexIiTiH-9xfvqRzH_-h-5">
          <mxGeometry relative="1" as="geometry" />
        </mxCell>
        <mxCell id="PexIiTiH-9xfvqRzH_-h-23" style="edgeStyle=orthogonalEdgeStyle;rounded=0;orthogonalLoop=1;jettySize=auto;html=1;" edge="1" parent="1" source="PexIiTiH-9xfvqRzH_-h-1" target="PexIiTiH-9xfvqRzH_-h-21">
          <mxGeometry relative="1" as="geometry" />
        </mxCell>
        <mxCell id="PexIiTiH-9xfvqRzH_-h-1" value="Templates" style="rounded=0;whiteSpace=wrap;html=1;fillColor=#ffe6cc;strokeColor=#d79b00;fontStyle=1" vertex="1" parent="1">
          <mxGeometry x="240" y="60" width="120" height="60" as="geometry" />
        </mxCell>
        <mxCell id="PexIiTiH-9xfvqRzH_-h-3" value="Departamento" style="whiteSpace=wrap;html=1;fillColor=#dae8fc;strokeColor=#6c8ebf;rounded=0;fontStyle=1;" vertex="1" parent="1">
          <mxGeometry x="210" y="330" width="120" height="60" as="geometry" />
        </mxCell>
        <mxCell id="PexIiTiH-9xfvqRzH_-h-10" value="" style="edgeStyle=orthogonalEdgeStyle;rounded=0;orthogonalLoop=1;jettySize=auto;html=1;" edge="1" parent="1" source="PexIiTiH-9xfvqRzH_-h-5" target="PexIiTiH-9xfvqRzH_-h-9">
          <mxGeometry relative="1" as="geometry" />
        </mxCell>
        <mxCell id="PexIiTiH-9xfvqRzH_-h-16" style="edgeStyle=orthogonalEdgeStyle;rounded=0;orthogonalLoop=1;jettySize=auto;html=1;" edge="1" parent="1" source="PexIiTiH-9xfvqRzH_-h-5" target="PexIiTiH-9xfvqRzH_-h-12">
          <mxGeometry relative="1" as="geometry" />
        </mxCell>
        <mxCell id="PexIiTiH-9xfvqRzH_-h-5" value="Static" style="whiteSpace=wrap;html=1;fillColor=#e1d5e7;strokeColor=#9673a6;rounded=0;fontStyle=1;" vertex="1" parent="1">
          <mxGeometry x="440" y="60" width="120" height="60" as="geometry" />
        </mxCell>
        <mxCell id="PexIiTiH-9xfvqRzH_-h-7" value="Departamento" style="whiteSpace=wrap;html=1;fillColor=#dae8fc;strokeColor=#6c8ebf;rounded=0;fontStyle=1;" vertex="1" parent="1">
          <mxGeometry x="560" y="330" width="120" height="60" as="geometry" />
        </mxCell>
        <mxCell id="PexIiTiH-9xfvqRzH_-h-31" style="edgeStyle=orthogonalEdgeStyle;rounded=0;orthogonalLoop=1;jettySize=auto;html=1;entryX=0.5;entryY=0;entryDx=0;entryDy=0;" edge="1" parent="1" source="PexIiTiH-9xfvqRzH_-h-9" target="PexIiTiH-9xfvqRzH_-h-7">
          <mxGeometry relative="1" as="geometry" />
        </mxCell>
        <mxCell id="PexIiTiH-9xfvqRzH_-h-9" value="JavaScript" style="whiteSpace=wrap;html=1;fillColor=#e1d5e7;strokeColor=#9673a6;rounded=0;fontStyle=1;" vertex="1" parent="1">
          <mxGeometry x="750" y="180" width="120" height="60" as="geometry" />
        </mxCell>
        <mxCell id="PexIiTiH-9xfvqRzH_-h-14" style="edgeStyle=orthogonalEdgeStyle;rounded=0;orthogonalLoop=1;jettySize=auto;html=1;" edge="1" parent="1" source="PexIiTiH-9xfvqRzH_-h-12" target="PexIiTiH-9xfvqRzH_-h-7">
          <mxGeometry relative="1" as="geometry" />
        </mxCell>
        <mxCell id="PexIiTiH-9xfvqRzH_-h-12" value="CSS" style="whiteSpace=wrap;html=1;fillColor=#e1d5e7;strokeColor=#9673a6;rounded=0;fontStyle=1;" vertex="1" parent="1">
          <mxGeometry x="440" y="180" width="120" height="60" as="geometry" />
        </mxCell>
        <mxCell id="PexIiTiH-9xfvqRzH_-h-24" style="edgeStyle=orthogonalEdgeStyle;rounded=0;orthogonalLoop=1;jettySize=auto;html=1;" edge="1" parent="1" source="PexIiTiH-9xfvqRzH_-h-21" target="PexIiTiH-9xfvqRzH_-h-3">
          <mxGeometry relative="1" as="geometry" />
        </mxCell>
        <mxCell id="PexIiTiH-9xfvqRzH_-h-21" value="Views" style="whiteSpace=wrap;html=1;fillColor=#ffe6cc;strokeColor=#d79b00;rounded=0;fontStyle=1;" vertex="1" parent="1">
          <mxGeometry x="240" y="200" width="120" height="60" as="geometry" />
        </mxCell>
        <mxCell id="PexIiTiH-9xfvqRzH_-h-28" value="" style="edgeStyle=orthogonalEdgeStyle;rounded=0;orthogonalLoop=1;jettySize=auto;html=1;" edge="1" parent="1" source="PexIiTiH-9xfvqRzH_-h-25" target="PexIiTiH-9xfvqRzH_-h-27">
          <mxGeometry relative="1" as="geometry" />
        </mxCell>
        <mxCell id="PexIiTiH-9xfvqRzH_-h-25" value="Controller" style="rounded=0;whiteSpace=wrap;html=1;fontStyle=1;fillColor=#60a917;strokeColor=#2D7600;fontColor=#ffffff;" vertex="1" parent="1">
          <mxGeometry x="50" y="60" width="120" height="60" as="geometry" />
        </mxCell>
        <mxCell id="PexIiTiH-9xfvqRzH_-h-37" style="edgeStyle=orthogonalEdgeStyle;rounded=0;orthogonalLoop=1;jettySize=auto;html=1;" edge="1" parent="1" source="PexIiTiH-9xfvqRzH_-h-26" target="PexIiTiH-9xfvqRzH_-h-35">
          <mxGeometry relative="1" as="geometry" />
        </mxCell>
        <mxCell id="PexIiTiH-9xfvqRzH_-h-26" value="Models" style="rounded=0;whiteSpace=wrap;html=1;fontStyle=1;fillColor=#0050ef;strokeColor=#001DBC;fontColor=#ffffff;" vertex="1" parent="1">
          <mxGeometry x="-110" y="60" width="120" height="60" as="geometry" />
        </mxCell>
        <mxCell id="PexIiTiH-9xfvqRzH_-h-27" value="Departamento" style="whiteSpace=wrap;html=1;fillColor=#dae8fc;strokeColor=#6c8ebf;rounded=0;fontStyle=1;" vertex="1" parent="1">
          <mxGeometry x="50" y="330" width="120" height="60" as="geometry" />
        </mxCell>
        <mxCell id="PexIiTiH-9xfvqRzH_-h-35" value="Departamento" style="whiteSpace=wrap;html=1;fillColor=#dae8fc;strokeColor=#6c8ebf;rounded=0;fontStyle=1;" vertex="1" parent="1">
          <mxGeometry x="-110" y="330" width="120" height="60" as="geometry" />
        </mxCell>
        <mxCell id="PexIiTiH-9xfvqRzH_-h-42" value="" style="edgeStyle=orthogonalEdgeStyle;rounded=0;orthogonalLoop=1;jettySize=auto;html=1;" edge="1" parent="1" source="PexIiTiH-9xfvqRzH_-h-38" target="PexIiTiH-9xfvqRzH_-h-43">
          <mxGeometry relative="1" as="geometry">
            <mxPoint x="-210" y="330" as="targetPoint" />
          </mxGeometry>
        </mxCell>
        <mxCell id="PexIiTiH-9xfvqRzH_-h-38" value="Routes" style="rounded=1;whiteSpace=wrap;html=1;fillColor=#e3c800;fontColor=#000000;strokeColor=#B09500;" vertex="1" parent="1">
          <mxGeometry x="-270" y="60" width="120" height="60" as="geometry" />
        </mxCell>
        <mxCell id="PexIiTiH-9xfvqRzH_-h-43" value="Departamento" style="whiteSpace=wrap;html=1;fillColor=#dae8fc;strokeColor=#6c8ebf;rounded=0;fontStyle=1;" vertex="1" parent="1">
          <mxGeometry x="-270" y="330" width="120" height="60" as="geometry" />
        </mxCell>
      </root>
    </mxGraphModel>
  </diagram>
  <diagram id="V32fHa6XwLg2oz2dOdXt" name="Caso de Uso">
    <mxGraphModel dx="761" dy="446" grid="1" gridSize="10" guides="1" tooltips="1" connect="1" arrows="1" fold="1" page="1" pageScale="1" pageWidth="1169" pageHeight="827" math="0" shadow="0">
      <root>
        <mxCell id="0" />
        <mxCell id="1" parent="0" />
        <mxCell id="7-LFdCB3Adzbr_MkhoQj-3" value="" style="edgeStyle=orthogonalEdgeStyle;rounded=0;orthogonalLoop=1;jettySize=auto;html=1;" edge="1" parent="1" source="X94zHUlKwwAvXjaNLUaH-1" target="7-LFdCB3Adzbr_MkhoQj-2">
          <mxGeometry relative="1" as="geometry" />
        </mxCell>
        <mxCell id="X94zHUlKwwAvXjaNLUaH-1" value="Login" style="rounded=0;whiteSpace=wrap;html=1;" vertex="1" parent="1">
          <mxGeometry x="380" y="310" width="120" height="60" as="geometry" />
        </mxCell>
        <mxCell id="X94zHUlKwwAvXjaNLUaH-5" style="edgeStyle=orthogonalEdgeStyle;rounded=0;orthogonalLoop=1;jettySize=auto;html=1;" edge="1" parent="1" source="X94zHUlKwwAvXjaNLUaH-2" target="X94zHUlKwwAvXjaNLUaH-4">
          <mxGeometry relative="1" as="geometry" />
        </mxCell>
        <mxCell id="X94zHUlKwwAvXjaNLUaH-2" value="Cadastro" style="rounded=1;whiteSpace=wrap;html=1;" vertex="1" parent="1">
          <mxGeometry x="380" y="70" width="120" height="60" as="geometry" />
        </mxCell>
        <mxCell id="X94zHUlKwwAvXjaNLUaH-6" style="edgeStyle=orthogonalEdgeStyle;rounded=0;orthogonalLoop=1;jettySize=auto;html=1;" edge="1" parent="1" source="X94zHUlKwwAvXjaNLUaH-4" target="X94zHUlKwwAvXjaNLUaH-1">
          <mxGeometry relative="1" as="geometry" />
        </mxCell>
        <mxCell id="X94zHUlKwwAvXjaNLUaH-4" value="Confirmação de e-mail" style="rounded=0;whiteSpace=wrap;html=1;" vertex="1" parent="1">
          <mxGeometry x="380" y="190" width="120" height="60" as="geometry" />
        </mxCell>
        <mxCell id="7-LFdCB3Adzbr_MkhoQj-12" style="edgeStyle=orthogonalEdgeStyle;rounded=0;orthogonalLoop=1;jettySize=auto;html=1;entryX=0.5;entryY=0;entryDx=0;entryDy=0;" edge="1" parent="1" source="7-LFdCB3Adzbr_MkhoQj-2" target="7-LFdCB3Adzbr_MkhoQj-11">
          <mxGeometry relative="1" as="geometry" />
        </mxCell>
        <mxCell id="7-LFdCB3Adzbr_MkhoQj-2" value="Aplicação CIC" style="rounded=0;whiteSpace=wrap;html=1;fillColor=#d5e8d4;strokeColor=#82b366;" vertex="1" parent="1">
          <mxGeometry x="580" y="310" width="120" height="60" as="geometry" />
        </mxCell>
        <mxCell id="7-LFdCB3Adzbr_MkhoQj-7" value="" style="edgeStyle=orthogonalEdgeStyle;rounded=0;orthogonalLoop=1;jettySize=auto;html=1;" edge="1" parent="1" source="7-LFdCB3Adzbr_MkhoQj-4" target="7-LFdCB3Adzbr_MkhoQj-6">
          <mxGeometry relative="1" as="geometry" />
        </mxCell>
        <mxCell id="7-LFdCB3Adzbr_MkhoQj-8" value="" style="edgeStyle=orthogonalEdgeStyle;rounded=0;orthogonalLoop=1;jettySize=auto;html=1;" edge="1" parent="1" source="7-LFdCB3Adzbr_MkhoQj-4" target="7-LFdCB3Adzbr_MkhoQj-6">
          <mxGeometry relative="1" as="geometry" />
        </mxCell>
        <mxCell id="7-LFdCB3Adzbr_MkhoQj-10" style="edgeStyle=orthogonalEdgeStyle;rounded=0;orthogonalLoop=1;jettySize=auto;html=1;" edge="1" parent="1" source="7-LFdCB3Adzbr_MkhoQj-4" target="7-LFdCB3Adzbr_MkhoQj-9">
          <mxGeometry relative="1" as="geometry" />
        </mxCell>
        <mxCell id="7-LFdCB3Adzbr_MkhoQj-4" value="Lista de Execuções" style="rounded=0;whiteSpace=wrap;html=1;" vertex="1" parent="1">
          <mxGeometry x="580" y="560" width="120" height="60" as="geometry" />
        </mxCell>
        <mxCell id="7-LFdCB3Adzbr_MkhoQj-6" value="Relatórios" style="rounded=0;whiteSpace=wrap;html=1;" vertex="1" parent="1">
          <mxGeometry x="500" y="720" width="120" height="60" as="geometry" />
        </mxCell>
        <mxCell id="7-LFdCB3Adzbr_MkhoQj-9" value="Visões" style="rounded=0;whiteSpace=wrap;html=1;" vertex="1" parent="1">
          <mxGeometry x="680" y="720" width="120" height="60" as="geometry" />
        </mxCell>
        <mxCell id="7-LFdCB3Adzbr_MkhoQj-13" style="edgeStyle=orthogonalEdgeStyle;rounded=0;orthogonalLoop=1;jettySize=auto;html=1;entryX=0.5;entryY=0;entryDx=0;entryDy=0;" edge="1" parent="1" source="7-LFdCB3Adzbr_MkhoQj-11" target="7-LFdCB3Adzbr_MkhoQj-4">
          <mxGeometry relative="1" as="geometry" />
        </mxCell>
        <mxCell id="7-LFdCB3Adzbr_MkhoQj-14" style="edgeStyle=orthogonalEdgeStyle;rounded=0;orthogonalLoop=1;jettySize=auto;html=1;entryX=0.5;entryY=1;entryDx=0;entryDy=0;" edge="1" parent="1" source="7-LFdCB3Adzbr_MkhoQj-11" target="X94zHUlKwwAvXjaNLUaH-1">
          <mxGeometry relative="1" as="geometry" />
        </mxCell>
        <mxCell id="7-LFdCB3Adzbr_MkhoQj-11" value="Nível de&amp;nbsp; Acesso" style="rounded=0;whiteSpace=wrap;html=1;fillColor=#f8cecc;strokeColor=#b85450;" vertex="1" parent="1">
          <mxGeometry x="580" y="440" width="120" height="60" as="geometry" />
        </mxCell>
      </root>
    </mxGraphModel>
  </diagram>
</mxfile>
